<svg width="500" height="400" viewBox="0 0 500 400" xmlns="http://www.w3.org/2000/svg">
  <!-- Background -->
  <rect width="500" height="400" fill="#e3f2fd" rx="10"/>
  
  <!-- Main container -->
  <rect x="50" y="50" width="400" height="300" fill="#ffffff" rx="8" stroke="#1976d2" stroke-width="2"/>
  
  <!-- Header -->
  <rect x="50" y="50" width="400" height="60" fill="#1976d2" rx="8 8 0 0"/>
  <text x="250" y="85" text-anchor="middle" fill="white" font-family="Arial, sans-serif" font-size="18" font-weight="bold">Sistema de Gestão</text>
  
  <!-- Dashboard icons -->
  <g transform="translate(80, 140)">
    <!-- Patients icon -->
    <rect x="0" y="0" width="80" height="60" fill="#f5f5f5" rx="4" stroke="#1976d2"/>
    <circle cx="40" cy="25" r="12" fill="#1976d2"/>
    <rect x="28" y="35" width="24" height="15" fill="#1976d2" rx="2"/>
    <text x="40" y="55" text-anchor="middle" fill="#1976d2" font-family="Arial, sans-serif" font-size="10">Pacientes</text>
  </g>
  
  <g transform="translate(210, 140)">
    <!-- Appointments icon -->
    <rect x="0" y="0" width="80" height="60" fill="#f5f5f5" rx="4" stroke="#1976d2"/>
    <rect x="25" y="15" width="30" height="25" fill="none" stroke="#1976d2" stroke-width="2"/>
    <line x1="30" y1="20" x2="50" y2="20" stroke="#1976d2" stroke-width="1"/>
    <line x1="30" y1="25" x2="45" y2="25" stroke="#1976d2" stroke-width="1"/>
    <line x1="30" y1="30" x2="50" y2="30" stroke="#1976d2" stroke-width="1"/>
    <text x="40" y="55" text-anchor="middle" fill="#1976d2" font-family="Arial, sans-serif" font-size="10">Consultas</text>
  </g>
  
  <g transform="translate(340, 140)">
    <!-- Reports icon -->
    <rect x="0" y="0" width="80" height="60" fill="#f5f5f5" rx="4" stroke="#1976d2"/>
    <rect x="25" y="15" width="30" height="20" fill="none" stroke="#1976d2" stroke-width="2"/>
    <line x1="30" y1="20" x2="35" y2="30" stroke="#1976d2" stroke-width="2"/>
    <line x1="35" y1="30" x2="40" y2="25" stroke="#1976d2" stroke-width="2"/>
    <line x1="40" y1="25" x2="45" y2="32" stroke="#1976d2" stroke-width="2"/>
    <line x1="45" y1="32" x2="50" y2="22" stroke="#1976d2" stroke-width="2"/>
    <text x="40" y="55" text-anchor="middle" fill="#1976d2" font-family="Arial, sans-serif" font-size="10">Relatórios</text>
  </g>
  
  <g transform="translate(80, 220)">
    <!-- Payments icon -->
    <rect x="0" y="0" width="80" height="60" fill="#f5f5f5" rx="4" stroke="#1976d2"/>
    <rect x="25" y="20" width="30" height="18" fill="none" stroke="#1976d2" stroke-width="2" rx="2"/>
    <circle cx="32" cy="29" r="2" fill="#1976d2"/>
    <text x="40" y="55" text-anchor="middle" fill="#1976d2" font-family="Arial, sans-serif" font-size="10">Pagamentos</text>
  </g>
  
  <g transform="translate(210, 220)">
    <!-- Staff icon -->
    <rect x="0" y="0" width="80" height="60" fill="#f5f5f5" rx="4" stroke="#1976d2"/>
    <circle cx="35" cy="25" r="8" fill="#1976d2"/>
    <circle cx="45" cy="25" r="8" fill="#1976d2" opacity="0.7"/>
    <rect x="27" y="32" width="16" height="10" fill="#1976d2" rx="2"/>
    <rect x="37" y="32" width="16" height="10" fill="#1976d2" rx="2" opacity="0.7"/>
    <text x="40" y="55" text-anchor="middle" fill="#1976d2" font-family="Arial, sans-serif" font-size="10">Funcionários</text>
  </g>
  
  <g transform="translate(340, 220)">
    <!-- Settings icon -->
    <rect x="0" y="0" width="80" height="60" fill="#f5f5f5" rx="4" stroke="#1976d2"/>
    <circle cx="40" cy="29" r="8" fill="none" stroke="#1976d2" stroke-width="2"/>
    <circle cx="40" cy="29" r="3" fill="#1976d2"/>
    <line x1="40" y1="15" x2="40" y2="20" stroke="#1976d2" stroke-width="2"/>
    <line x1="40" y1="38" x2="40" y2="43" stroke="#1976d2" stroke-width="2"/>
    <line x1="26" y1="29" x2="31" y2="29" stroke="#1976d2" stroke-width="2"/>
    <line x1="49" y1="29" x2="54" y2="29" stroke="#1976d2" stroke-width="2"/>
    <text x="40" y="55" text-anchor="middle" fill="#1976d2" font-family="Arial, sans-serif" font-size="10">Configurações</text>
  </g>
  
  <!-- Bottom text -->
  <text x="250" y="330" text-anchor="middle" fill="#1976d2" font-family="Arial, sans-serif" font-size="14" font-weight="bold">Consultório de Psicologia</text>
</svg>